<?xml version="1.0" standalone="no"?>
<!DOCTYPE svg PUBLIC "-//W3C//DTD SVG 20010904//EN"
 "http://www.w3.org/TR/2001/REC-SVG-20010904/DTD/svg10.dtd">
<svg version="1.0" xmlns="http://www.w3.org/2000/svg"
 width="342.000000pt" height="342.000000pt" viewBox="0 0 342.000000 342.000000"
 preserveAspectRatio="xMidYMid meet">
<metadata>
Created by potrace 1.11, written by Peter Selinger 2001-2013
</metadata>
<g transform="translate(0.000000,342.000000) scale(0.100000,-0.100000)"
fill="#000000" stroke="none">
<path d="M327 3408 c-15 -11 -16 -19 -6 -63 22 -101 22 -124 -2 -196 l-23 -70
37 -112 c40 -125 52 -166 67 -249 7 -34 23 -73 42 -99 28 -39 30 -45 19 -75
-15 -40 -8 -57 34 -79 23 -13 41 -36 61 -79 20 -41 55 -86 111 -142 78 -78
105 -123 101 -174 -4 -48 7 -66 77 -137 53 -53 75 -82 75 -100 0 -43 -32 -22
-83 55 -48 72 -62 83 -85 60 -22 -22 -13 -64 53 -263 36 -107 65 -202 65 -211
0 -26 -56 -74 -87 -74 -60 0 -122 -63 -109 -113 5 -21 13 -26 58 -31 52 -6
220 -9 268 -4 22 3 34 -12 97 -107 109 -166 100 -155 141 -155 59 1 166 -11
176 -20 5 -5 -17 -16 -47 -25 -97 -28 -118 -80 -61 -148 32 -38 28 -61 -11
-65 -69 -6 -103 -21 -114 -53 -14 -40 -8 -49 35 -49 19 0 34 -3 34 -7 0 -3
-11 -26 -25 -50 -26 -43 -26 -43 -81 -43 -50 0 -59 -3 -90 -34 -24 -24 -34
-43 -34 -65 0 -31 1 -31 51 -31 41 0 50 -3 45 -15 -3 -8 -4 -15 -2 -15 7 0
167 263 205 339 12 22 25 42 29 45 11 7 82 -5 82 -13 0 -6 -144 -274 -240
-446 -153 -274 -160 -290 -143 -294 10 -2 19 1 20 5 2 5 17 33 33 62 l30 52
573 -2 572 -3 30 -57 c19 -37 36 -58 48 -58 27 0 29 -7 -53 145 -167 311 -216
400 -267 484 -37 62 -41 104 -13 141 10 14 20 23 23 20 7 -9 112 -190 174
-300 83 -146 261 -452 275 -471 l18 -24 -10 28 c-5 15 -16 40 -25 57 -8 16
-15 31 -15 35 0 3 25 5 55 5 54 0 55 1 55 29 0 17 -14 46 -35 75 l-36 46 -63
0 c-52 0 -66 4 -83 23 -21 24 -63 90 -63 101 0 3 18 6 39 6 47 0 57 17 37 64
-18 44 -52 66 -98 66 -42 0 -91 37 -103 78 -6 20 -3 22 29 22 32 0 36 3 36 25
0 25 -31 65 -50 65 -5 0 -1 -9 10 -20 25 -25 18 -40 -20 -40 -19 0 -35 8 -45
23 -15 21 -14 23 12 34 l28 12 -27 1 c-15 0 -39 11 -54 23 -36 31 -36 73 -1
119 33 42 33 55 5 113 -12 24 -19 47 -16 50 3 3 25 -6 50 -20 l45 -25 32 67
c62 130 89 177 104 183 9 3 56 4 105 2 l89 -3 12 -38 c24 -83 73 -117 171
-123 l65 -3 6 120 c5 91 3 128 -7 154 -20 49 -18 64 17 97 70 65 109 124 109
164 0 34 -6 44 -44 76 -54 45 -71 81 -62 129 4 20 35 102 69 183 l62 147 10
-75 c6 -41 14 -81 18 -87 12 -18 41 -16 60 5 13 14 14 25 5 62 -12 52 -4 276
12 332 11 39 45 59 71 42 9 -5 11 1 6 23 -5 23 -1 35 13 48 24 22 26 37 4 28
-14 -5 -15 -1 -9 26 7 31 6 32 -13 22 -29 -15 -26 -17 -63 41 -34 53 -34 53
-31 163 1 65 9 129 18 157 11 34 13 69 9 132 -6 105 -27 150 -91 203 -26 21
-69 57 -97 81 -69 58 -102 57 -165 -2 l-48 -45 -81 2 c-78 2 -82 1 -120 -30
-76 -65 -113 -81 -208 -93 -119 -15 -305 -62 -305 -77 0 -3 15 -24 33 -47 63
-77 107 -138 107 -147 0 -19 -22 -7 -79 44 -172 154 -212 188 -236 197 -15 6
-106 22 -202 36 l-175 26 -46 -52 c-41 -47 -48 -51 -76 -46 -45 9 -149 60
-214 105 -31 21 -75 45 -97 52 -26 8 -61 33 -97 71 -32 32 -64 58 -72 58 -8 0
-29 -18 -46 -40 -36 -45 -46 -48 -92 -21 -18 11 -67 24 -108 31 -41 6 -90 20
-108 30 -39 24 -34 23 -55 8z m57 -32 c18 -7 57 -17 87 -21 30 -4 83 -20 118
-36 72 -33 80 -31 123 39 l21 33 52 -54 c34 -36 79 -69 128 -94 235 -118 307
-157 307 -165 0 -20 -36 -61 -69 -77 -20 -10 -62 -24 -93 -31 -32 -6 -60 -16
-64 -21 -10 -16 4 -55 32 -88 14 -17 23 -35 20 -40 -6 -10 -83 -28 -141 -33
l-30 -3 42 -28 c34 -24 50 -28 92 -26 50 3 53 1 77 -35 l26 -38 -27 -28 c-19
-20 -25 -34 -20 -48 3 -12 1 -29 -6 -39 -9 -15 -8 -26 4 -49 18 -35 16 -130
-4 -149 -15 -13 -73 -35 -95 -35 -7 0 -36 44 -65 98 -115 214 -175 251 -330
202 l-63 -19 -24 22 c-44 41 -63 85 -77 179 -8 51 -28 131 -44 176 -36 97 -39
144 -11 190 24 39 25 89 5 156 -16 51 -19 76 -10 76 3 0 21 -6 39 -14z m2420
-43 c90 -69 135 -114 157 -155 28 -55 34 -140 15 -228 -9 -41 -19 -116 -23
-165 l-6 -91 -56 19 c-95 32 -190 25 -397 -27 -216 -55 -254 -57 -295 -17 -21
21 -29 39 -29 63 1 91 97 118 432 124 l207 4 70 45 c76 49 91 68 91 113 l0 30
-65 -35 c-36 -19 -65 -31 -65 -26 0 4 5 25 11 46 6 22 9 41 6 43 -2 2 -28 -6
-58 -20 -30 -13 -65 -27 -78 -31 l-24 -7 27 34 c34 46 33 52 -11 45 -33 -6
-69 -27 -171 -102 -24 -17 -51 -25 -100 -29 -188 -16 -265 -27 -311 -46 -29
-11 -53 -20 -56 -20 -5 0 -120 151 -133 177 -7 12 -9 24 -5 26 15 9 187 47
277 62 78 13 99 21 156 59 85 59 109 67 179 60 l58 -7 57 52 c31 28 62 51 68
51 6 0 39 -21 72 -47z m-1424 -333 c17 -11 13 -15 -22 -24 -30 -7 -36 2 -16
22 14 14 18 15 38 2z m556 -60 c37 -38 73 -70 81 -70 17 0 17 1 -8 -56 -26
-59 -28 -137 -5 -182 9 -18 38 -46 63 -62 104 -66 217 -80 333 -42 209 69 322
68 379 -4 29 -37 25 -84 -9 -101 -41 -21 -112 -16 -176 13 -83 38 -190 43
-307 15 -157 -37 -265 -25 -321 38 -16 17 -18 31 -13 80 3 41 1 66 -8 78 -7 9
-11 22 -8 29 2 6 -5 34 -15 62 -11 28 -17 62 -15 76 3 15 -6 53 -21 91 -23 58
-33 105 -22 105 2 0 35 -31 72 -70z m-1280 -511 c18 -11 42 -34 53 -52 37 -61
96 -182 116 -242 33 -95 83 -119 183 -89 22 6 22 5 22 -84 0 -114 -33 -249
-93 -375 l-43 -92 -48 129 c-47 130 -92 294 -82 303 9 9 33 -16 70 -71 19 -29
42 -58 50 -65 33 -27 74 6 62 50 -3 13 -40 59 -81 102 -66 68 -75 83 -75 115
0 74 -19 112 -93 186 -117 118 -160 206 -101 206 15 0 42 -9 60 -21z m2312
-243 c2 -137 -1 -176 -11 -185 -11 -9 -16 2 -24 62 -12 77 -27 127 -41 127 -4
0 -43 -92 -87 -205 -50 -134 -81 -201 -86 -193 -14 21 -10 69 11 128 24 68 26
188 4 245 -8 22 -16 46 -17 53 -2 9 218 137 243 141 3 1 6 -77 8 -173z m-1178
-384 c0 -41 54 -117 107 -149 69 -43 94 -69 85 -90 -4 -11 -29 -49 -57 -86
-44 -60 -53 -67 -75 -62 -67 17 -76 16 -110 -7 -45 -31 -69 -72 -54 -95 17
-28 70 -35 215 -31 160 4 180 12 198 81 14 56 47 97 122 148 68 46 89 73 89
112 0 23 4 28 17 23 9 -4 71 -9 139 -13 67 -3 129 -10 136 -14 10 -7 7 -20
-16 -64 -40 -77 -87 -111 -188 -136 -119 -30 -139 -52 -142 -154 -1 -51 -6
-68 -24 -88 -13 -13 -31 -46 -41 -73 -24 -63 -38 -71 -90 -54 -60 20 -72 4
-42 -56 27 -53 23 -95 -11 -131 -12 -13 -40 -51 -62 -86 -50 -75 -60 -78 -182
-41 -77 23 -114 28 -267 33 l-179 6 -29 33 c-16 18 -29 41 -29 52 0 28 37 58
80 65 21 4 45 14 54 24 15 17 15 19 0 32 -16 13 -111 29 -189 32 -38 2 -40 5
-78 72 -22 39 -62 99 -89 135 -28 38 -46 71 -43 80 3 8 25 48 48 89 31 55 80
111 190 222 168 168 171 170 298 149 70 -11 80 -10 120 8 24 10 53 29 63 41
26 28 36 27 36 -7z m935 -578 l0 -124 -28 0 c-49 0 -115 21 -137 45 -11 12
-23 38 -26 57 l-6 35 45 7 c57 9 88 33 112 86 29 65 40 36 40 -106z m-1050
-484 c19 -5 -14 -8 -90 -8 -75 0 -113 3 -100 8 24 10 149 10 190 0z m-390 -40
c12 -19 -16 -40 -51 -40 -35 0 -44 16 -22 38 15 15 64 16 73 2z m619 -8 c41
-4 71 -12 74 -19 3 -10 -56 -13 -272 -13 -163 0 -276 4 -276 9 0 5 8 17 17 26
15 16 36 17 202 11 102 -3 217 -10 255 -14z m123 -111 c13 -24 21 -46 20 -48
-2 -2 -160 -2 -350 -1 l-346 3 30 48 29 47 297 -2 296 -3 24 -44z m-847 -76
c0 -4 -7 -19 -15 -35 -15 -28 -19 -30 -76 -30 l-60 0 16 29 c8 16 20 31 27 34
18 7 108 8 108 2z m899 -21 c12 -15 21 -31 21 -35 0 -5 -178 -9 -395 -9 -217
0 -395 3 -395 6 0 11 23 49 34 56 6 4 169 8 363 8 l352 0 20 -26z m247 18 c11
-7 34 -45 34 -56 0 -3 -22 -6 -50 -6 -45 0 -51 3 -65 30 -8 16 -15 31 -15 35
0 8 83 6 96 -3z m-169 -166 c19 -32 32 -61 30 -63 -2 -2 -222 -2 -489 -1
l-485 3 35 63 34 62 421 -2 421 -3 33 -59z m68 -126 c14 -22 25 -42 25 -45 0
-3 -245 -5 -545 -5 -429 0 -545 3 -545 13 0 6 9 27 20 45 l20 32 500 0 500 0
25 -40z m308 -4 c15 -24 27 -46 27 -50 0 -3 -26 -6 -58 -6 -62 0 -76 9 -115
73 l-17 27 67 0 68 0 28 -44z"/>
<path d="M2292 1177 c-23 -25 -30 -89 -12 -117 7 -11 4 -16 -12 -20 -13 -3
-27 -21 -38 -49 -9 -24 -31 -56 -48 -70 -37 -30 -38 -39 -16 -84 22 -43 21
-43 43 -23 16 14 23 15 41 6 30 -16 39 -4 57 72 8 34 23 78 34 95 20 32 20 34
3 123 -10 49 -20 90 -24 90 -4 0 -16 -10 -28 -23z m33 -110 c5 -34 3 -51 -11
-72 -10 -15 -23 -55 -29 -89 -6 -36 -16 -61 -23 -60 -7 1 -26 2 -42 3 -43 2
-48 26 -13 59 17 15 36 44 42 65 11 33 17 38 37 34 27 -5 31 14 14 73 -5 19
-7 44 -4 55 7 19 7 19 15 -1 4 -12 10 -42 14 -67z"/>
<path d="M1079 323 c-31 -51 -34 -53 -110 -53 -78 0 -106 -17 -138 -83 -32
-65 -30 -67 55 -67 l76 0 -14 -23 c-45 -70 -59 -97 -50 -97 8 0 152 241 196
328 22 44 13 41 -15 -5z m-49 -84 c0 -6 -15 -26 -34 -45 -31 -31 -39 -34 -96
-34 -59 0 -61 1 -55 23 14 46 51 67 121 67 40 0 64 -4 64 -11z"/>
</g>
</svg>
